{"buffers":[{"uri":"SciFiHelmet.bin","byteLength":3642984}],"asset":{"version":"2.0","generator":"gltfpack 0.15"},"bufferViews":[{"buffer":0,"byteOffset":0,"byteLength":840672,"byteStride":12,"target":34962},{"buffer":0,"byteOffset":840672,"byteLength":840672,"byteStride":12,"target":34962},{"buffer":0,"byteOffset":1681344,"byteLength":1120896,"byteStride":16,"target":34962},{"buffer":0,"byteOffset":2802240,"byteLength":560448,"byteStride":8,"target":34962},{"buffer":0,"byteOffset":3362688,"byteLength":280296,"target":34963}],"accessors":[{"bufferView":0,"byteOffset":0,"componentType":5126,"count":70056,"type":"VEC3"},{"bufferView":1,"byteOffset":0,"componentType":5126,"count":70056,"type":"VEC3","min":[-1.15115249,-1.4587183,-1.25112867],"max":[1.15115249,1.45871842,1.25112772]},{"bufferView":2,"byteOffset":0,"componentType":5126,"count":70056,"type":"VEC4"},{"bufferView":3,"byteOffset":0,"componentType":5126,"count":70056,"type":"VEC2"},{"bufferView":4,"byteOffset":0,"componentType":5125,"count":70074,"type":"SCALAR"}],"images":[{"uri":"SciFiHelmet_BaseColor.png"},{"uri":"SciFiHelmet_MetallicRoughness.png"},{"uri":"SciFiHelmet_Normal.png"},{"uri":"SciFiHelmet_AmbientOcclusion.png"}],"textures":[{"source":0},{"source":1},{"source":2},{"source":3}],"materials":[{"name":"SciFiHelmet","pbrMetallicRoughness":{"baseColorTexture":{"index":0,"texCoord":0},"metallicRoughnessTexture":{"index":1,"texCoord":0}},"normalTexture":{"index":2,"texCoord":0},"occlusionTexture":{"index":3,"texCoord":0}}],"meshes":[{"primitives":[{"attributes":{"NORMAL":0,"POSITION":1,"TANGENT":2,"TEXCOORD_0":3},"mode":4,"indices":4,"material":0}]}],"nodes":[{"mesh":0}],"scenes":[{"nodes":[0]}],"scene":0}